<svg xmlns="http://www.w3.org/2000/svg" xmlns:svg="http://www.w3.org/2000/svg" xmlns:xlink="http://www.w3.org/1999/xlink" id="Capa_1" width="23.996" height="24.016" x="0" y="0" version="1.1" viewBox="0 0 23.996 24.016" xml:space="preserve"><metadata id="metadata933"/><defs id="defs931"><linearGradient id="linearGradient1618"><stop id="stop1614" offset="0" stop-color="#08a" stop-opacity="1"/><stop id="stop1616" offset="1" stop-color="#08a" stop-opacity="0"/></linearGradient><linearGradient id="linearGradient1620" x1="-22.25" x2="-28.25" y1="-4.492" y2="9.758" gradientUnits="userSpaceOnUse" xlink:href="#linearGradient1618"/></defs><g id="g1624" transform="matrix(1.4998882,0,0,1.5002743,1.245458e-5,-1.4011516e-5)"><ellipse id="path939" cx="7.999" cy="8.004" fill="url(#linearGradient1620)" fill-opacity="1" stroke="#4d4d4d" stroke-width=".06" rx="7.97" ry="7.974"/><path id="path894" fill="#fff" stroke-width=".268" d="m 7.8854557,3.7948064 c 1.4552891,0 2.8880403,0.6706192 2.8880403,2.2746822 0,1.479228 -1.6940807,2.0480998 -2.057903,2.5826085 C 8.442458,9.04969 8.5336818,9.6083603 7.7832313,9.6083603 c -0.4888527,0 -0.7276446,-0.3978613 -0.7276446,-0.7618964 0,-1.3546614 1.9892172,-1.6612455 1.9892172,-2.7767069 0,-0.6139735 -0.408361,-0.9780086 -1.0909303,-0.9780086 -1.4552891,0 -0.887018,1.5012419 -1.9892171,1.5012419 -0.3978971,0 -0.73945,-0.2389316 -0.73945,-0.6937069 -2.683e-4,-1.1157299 1.2728414,-2.104477 2.6602492,-2.104477 z M 7.8288432,10.3469 c 0.5108538,0 0.9323617,0.420413 0.9323617,0.933176 0,0.512763 -0.420703,0.933175 -0.9323617,0.933175 -0.5116586,0 -0.9326299,-0.419875 -0.9326299,-0.933175 0,-0.512495 0.4209713,-0.933176 0.9326299,-0.933176 z"/></g></svg>