<svg xmlns="http://www.w3.org/2000/svg" xmlns:svg="http://www.w3.org/2000/svg" id="svg817" width="12" height="12" enable-background="new 0 0 26 26" version="1.1" viewBox="0 0 12 12"><metadata id="metadata823"/><path id="path815" fill="#0f0" stroke-width=".526" d="M 0.13846154,6.6 C 0.04615385,6.48 0,6.3 0,6.18 0,6.06 0.04615385,5.88 0.13846154,5.76 L 0.78461536,4.92 c 0.1846154,-0.24 0.46153844,-0.24 0.64615384,0 l 0.046153,0.06 2.5384614,3.54 c 0.092308,0.12 0.2307693,0.12 0.323077,0 L 10.523077,0.18 h 0.04615 v 0 c 0.184616,-0.24 0.461539,-0.24 0.646154,0 l 0.646154,0.84 c 0.184616,0.24 0.184616,0.6 0,0.84 v 0 L 4.4769229,11.82 C 4.3846154,11.94 4.2923076,12 4.1538462,12 4.0153844,12 3.923077,11.94 3.8307691,11.82 L 0.23076922,6.78 Z"/></svg>