<svg xmlns="http://www.w3.org/2000/svg" xmlns:svg="http://www.w3.org/2000/svg" id="Capa_1" width="12" height="12" x="0" y="0" version="1.1" viewBox="0 0 12 12" xml:space="preserve"><metadata id="metadata135"/><g id="g98" fill="#0f0" transform="scale(0.034381)"><path id="path96" fill="#0f0" d="m 349.03,141.226 v 66.579 c 0,5.012 -4.061,9.079 -9.079,9.079 H 216.884 v 123.067 c 0,5.019 -4.067,9.079 -9.079,9.079 h -66.579 c -5.009,0 -9.079,-4.061 -9.079,-9.079 V 216.884 H 9.079 C 4.063,216.884 0,212.817 0,207.805 v -66.579 c 0,-5.013 4.063,-9.079 9.079,-9.079 H 132.147 V 9.079 C 132.147,4.061 136.216,0 141.226,0 h 66.579 c 5.012,0 9.079,4.061 9.079,9.079 v 123.068 h 123.067 c 5.019,0 9.079,4.066 9.079,9.079 z"/></g></svg>