<svg xmlns="http://www.w3.org/2000/svg" xmlns:svg="http://www.w3.org/2000/svg" id="Layer_1" width="12" height="12" x="0" y="0" version="1.1" viewBox="0 0 12 12" xml:space="preserve"><metadata id="metadata1018"/><path id="XMLID_90_" fill="red" stroke-width=".042" d="M 0.18530763,10.025545 1.9744745,11.814702 C 2.093058,11.933327 2.2540227,12 2.4217347,12 2.5894888,12 2.7504115,11.93333 2.8689948,11.814702 L 5.9999843,8.6837266 9.1309735,11.814702 C 9.2495992,11.933327 9.4105217,12 9.5782337,12 c 0.167754,0 0.3286768,-0.06667 0.4473023,-0.185298 l 1.789167,-1.789157 c 0.247034,-0.2470354 0.247034,-0.6475284 0,-0.8945604 L 8.6837558,6.0000066 11.814703,2.8689866 C 11.933371,2.7503616 12,2.5894836 12,2.4217286 c 0,-0.167795 -0.06663,-0.328675 -0.185297,-0.4473 L 10.025578,0.18526863 c -0.2469922,-0.247032 -0.6475697,-0.247032 -0.8945622,4.3e-5 L 6.0000263,3.3162466 2.8689948,0.18531163 c -0.2469925,-0.247035 -0.6475699,-0.247035 -0.8945624,0 L 0.18530763,1.9744286 C 0.0666399,2.0930536 1.054262e-5,2.2539336 1.054262e-5,2.4216866 c 0,0.167755 0.06662935738,0.328635 0.18529708738,0.44726 l 3.13094717,3.131018 -3.13094717,3.13102 c -0.24707684,0.247032 -0.24707684,0.647525 0,0.8945604 z"/></svg>