<svg xmlns="http://www.w3.org/2000/svg" xmlns:svg="http://www.w3.org/2000/svg" id="Capa_1" width="12" height="12" x="0" y="0" version="1.1" viewBox="0 0 12 12" xml:space="preserve"><metadata id="metadata126"/><g id="Search" fill="#999" transform="scale(0.04794017)"><path id="path88" fill="#999" fill-rule="evenodd" d="m 244.186,214.604 -54.379,-54.378 c -0.289,-0.289 -0.628,-0.491 -0.93,-0.76 10.7,-16.231 16.945,-35.66 16.945,-56.554 C 205.822,46.075 159.747,0 102.911,0 46.075,0 0,46.075 0,102.911 c 0,56.835 46.074,102.911 102.91,102.911 20.895,0 40.323,-6.245 56.554,-16.945 0.269,0.301 0.47,0.64 0.759,0.929 l 54.38,54.38 c 8.169,8.168 21.413,8.168 29.583,0 8.168,-8.169 8.168,-21.413 0,-29.582 z M 102.911,170.146 c -37.134,0 -67.236,-30.102 -67.236,-67.235 0,-37.134 30.103,-67.236 67.236,-67.236 37.132,0 67.235,30.103 67.235,67.236 0,37.133 -30.103,67.235 -67.235,67.235 z" clip-rule="evenodd"/></g></svg>